<svg width="64" height="64" viewBox="0 0 64 64" fill="none" xmlns="http://www.w3.org/2000/svg">
<path d="M4 24.2666C4 17.1726 4 13.6256 5.38058 10.9161C6.59498 8.53267 8.53273 6.59492 10.9161 5.38052C13.6257 3.99994 17.1727 3.99994 24.2667 3.99994H39.7333C46.8273 3.99994 50.3743 3.99994 53.0839 5.38052C55.4673 6.59492 57.405 8.53267 58.6194 10.9161C60 13.6256 60 17.1726 60 24.2666V39.7333C60 46.8273 60 50.3743 58.6194 53.0838C57.405 55.4672 55.4673 57.405 53.0839 58.6194C50.3743 59.9999 46.8273 59.9999 39.7333 59.9999H24.2667C17.1727 59.9999 13.6257 59.9999 10.9161 58.6194C8.53273 57.405 6.59498 55.4672 5.38058 53.0838C4 50.3743 4 46.8273 4 39.7333V24.2666Z" fill="#00005B"/>
<path d="M27.5787 39.1277H18.9008L17.1352 44.7638C17.0862 44.9728 16.8937 45.1208 16.6844 45.1106H12.2891C12.0384 45.1106 11.9508 44.9693 12.0261 44.6867L19.5394 22.5852C19.6146 22.3541 19.6897 22.1281 19.7649 21.8325C19.8631 21.3184 19.9134 20.7959 19.9151 20.2721C19.8936 20.1173 20.0272 19.9803 20.1781 20.0023H26.1511C26.3261 20.0023 26.4263 20.0665 26.4517 20.195L34.9794 44.7252C35.0545 44.9823 34.9793 45.1108 34.7539 45.1106H29.8702C29.6989 45.13 29.5354 45.0126 29.4946 44.8409L27.5787 39.1277ZM20.2532 34.3754H26.1887C25.2135 31.043 24.113 27.7545 23.221 24.3962C22.2102 27.8798 21.2769 31.1106 20.2532 34.3754Z" fill="#9999FF"/>
<path d="M41.3216 36.9514C41.667 39.8132 44.0701 41.1776 46.7313 41.1194C48.2318 41.0899 49.8354 40.857 51.2375 40.2896C51.3625 40.1873 51.4254 40.2511 51.4254 40.4823V44.1426C51.4372 44.3331 51.3577 44.5032 51.1999 44.6049C49.4573 45.3966 47.4567 45.6353 45.5666 45.605C39.931 45.605 36.0607 41.6342 36.0623 35.8569C36.0476 30.3821 39.5994 25.7633 45.1158 25.7633C49.792 25.6421 53.0294 29.386 53.0424 34.0461C53.0424 34.8949 52.995 35.7465 52.8921 36.589C52.8722 36.7626 52.7244 36.8973 52.554 36.8973C48.8194 36.8973 45.0665 36.9514 41.3216 36.9514ZM41.3216 33.4414C43.403 33.4414 45.4963 33.515 47.5764 33.4221C47.8891 33.3901 48.1212 33.3309 48.1212 33.0057C48.0778 31.2781 46.6199 29.8573 44.9281 29.9234C42.8839 29.7966 41.5757 31.5221 41.3216 33.4414Z" fill="#9999FF"/>
</svg>
