<svg width="64" height="64" viewBox="0 0 64 64" fill="none" xmlns="http://www.w3.org/2000/svg">
<path d="M4 24.2667C4 17.1727 4 13.6257 5.38058 10.9161C6.59498 8.53273 8.53273 6.59498 10.9161 5.38058C13.6257 4 17.1727 4 24.2667 4H39.7333C46.8273 4 50.3743 4 53.0839 5.38058C55.4673 6.59498 57.405 8.53273 58.6194 10.9161C60 13.6257 60 17.1727 60 24.2667V39.7333C60 46.8273 60 50.3743 58.6194 53.0839C57.405 55.4673 55.4673 57.405 53.0839 58.6194C50.3743 60 46.8273 60 39.7333 60H24.2667C17.1727 60 13.6257 60 10.9161 58.6194C8.53273 57.405 6.59498 55.4673 5.38058 53.0839C4 50.3743 4 46.8273 4 39.7333V24.2667Z" fill="#330000"/>
<path d="M31.1368 39.1926H22.4589L20.6933 44.818C20.6443 45.027 20.4518 45.175 20.2425 45.1647H15.8472C15.5965 45.1647 15.5089 45.0235 15.5842 44.7409L23.0975 22.5477C23.1727 22.3165 23.2479 22.0532 23.323 21.7578C23.4212 21.2437 23.4716 20.7212 23.4732 20.1974C23.4517 20.0426 23.5877 19.9059 23.7362 19.9276H29.7092C29.8842 19.9276 29.9844 19.9919 30.0098 20.1203L38.5375 44.7794C38.6126 45.0365 38.5374 45.1649 38.312 45.1647H33.4283C33.257 45.1842 33.0935 45.0668 33.0527 44.895L31.1368 39.1926ZM23.8113 34.3378H29.7468C28.7716 31.0055 27.6711 27.7169 26.7791 24.3586C25.8167 27.7226 24.7667 31.073 23.8113 34.3378Z" fill="#FF9A00"/>
<path d="M43.6085 24.0117C43.2253 24.0275 42.8432 23.9601 42.4872 23.8141C42.1312 23.668 41.8092 23.4465 41.5423 23.164C41.2762 22.8694 41.0695 22.5236 40.9341 22.1467C40.7987 21.7698 40.7373 21.3692 40.7534 20.9678C40.7397 20.5705 40.8079 20.1746 40.9536 19.8062C41.0992 19.4377 41.319 19.1049 41.5986 18.8294C41.8755 18.5568 42.2023 18.3433 42.5602 18.2011C42.9181 18.0589 43.2999 17.9909 43.6836 18.001C44.5852 18.001 45.2928 18.2772 45.8061 18.8294C46.0653 19.1164 46.2667 19.453 46.3988 19.82C46.531 20.1869 46.5912 20.577 46.5762 20.9678C46.5919 21.3707 46.5285 21.7728 46.3898 22.15C46.251 22.5273 46.0398 22.8722 45.7685 23.164C45.4851 23.4506 45.1468 23.6739 44.775 23.8198C44.4033 23.9657 44.0061 24.031 43.6085 24.0117ZM41.0163 44.7793V26.362C41.0163 26.1309 41.1161 26.0152 41.3169 26.0152H45.9376C46.1378 26.0152 46.238 26.1308 46.2382 26.362V44.7793C46.2382 45.0364 46.138 45.1648 45.9376 45.1646H41.3545C41.1291 45.1646 41.0164 45.0362 41.0163 44.7793Z" fill="#FF9A00"/>
</svg>
