<svg width="111" height="35" viewBox="0 0 111 35" fill="none" xmlns="http://www.w3.org/2000/svg">
<g clip-path="url(#clip0_2_3908)">
<path d="M9.63866 33.2834H2.76094V7.45497C2.76094 6.64951 2.26424 6.14834 1.45878 6.14834H0V0H7.07462M7.07462 0C9.25383 0 10.1443 0.89943 10.1443 3.09654V11.7463H10.556L10.641 11.6568C10.641 11.6568 12.8247 9.42835 16.8296 9.42835C23.0406 9.42835 27.2156 14.3416 27.2156 21.6579C27.2156 28.9742 22.7945 33.8382 16.4627 33.8382C12.2877 33.8382 10.2159 31.5024 10.1935 31.48L10.1085 31.3816H9.64314V33.2789M14.8473 27.7839C17.2234 27.7839 19.7785 25.9089 19.7785 21.7966C19.7785 18.1049 17.7962 15.6214 14.8473 15.6214C12.5696 15.6214 9.9161 17.2368 9.9161 21.7966C9.9161 24.6828 11.4599 27.7839 14.8473 27.7839Z" fill="#0F2460"/>
<path d="M34.6345 0C36.8138 0 37.7042 0.894955 37.7042 3.09654V25.8284C37.7042 26.6339 38.2009 27.135 39.0064 27.135H40.4652V33.2789H33.395C31.2158 33.2789 30.3253 32.3839 30.3253 30.1823V7.45497C30.3253 6.64951 29.8286 6.14834 29.0232 6.14834H27.5644V0H34.639H34.6345Z" fill="#0F2460"/>
<path d="M66.6381 9.98779V25.833C66.6381 26.6384 67.1348 27.1396 67.9358 27.1396H69.3946V33.2879H62.6422C60.7225 33.2879 59.5725 32.393 59.5725 30.885V29.7171H59.0623L58.9818 29.8737C57.7646 32.2856 54.9769 33.8428 51.8803 33.8428C46.4837 33.8428 43.7497 30.9297 43.7497 25.1841V17.4428C43.7497 16.6373 43.253 16.1361 42.4475 16.1361H40.9887V9.98779H48.0633C50.2426 9.98779 51.133 10.8827 51.133 13.0843V23.6985C51.133 26.012 52.0548 27.1396 53.9521 27.1396C57.174 27.1396 59.2547 24.4458 59.2547 20.2708V9.98779H66.6381Z" fill="#0F2460"/>
<path d="M81.2528 9.42834C85.8081 9.42834 87.2311 10.9811 87.2445 10.9945L87.3296 11.0974H87.7994V9.98322H95.1783V25.8284C95.1783 26.6338 95.675 27.135 96.4805 27.135H97.9393V33.2789H91.1421C88.5512 33.2789 88.3498 31.7619 88.3498 31.2966V30.594H87.8084L87.7233 30.7327C87.7054 30.7641 85.7589 33.8382 81.1141 33.8382C74.9031 33.8382 70.7282 28.9249 70.7282 21.6087C70.7282 14.2924 74.9568 9.42834 81.2528 9.42834ZM83.0964 27.7839C85.3741 27.7839 88.0276 26.1685 88.0276 21.6087C88.0276 18.7269 86.4838 15.6214 83.0964 15.6214C80.7203 15.6214 78.1652 17.4964 78.1652 21.6087C78.1652 25.3004 80.1476 27.7839 83.0964 27.7839Z" fill="#0F2460"/>
<path d="M110.142 24.9602H101.819V33.2833H110.142V24.9602Z" fill="#0079C8"/>
</g>
<defs>
<clipPath id="clip0_2_3908">
<rect width="110.138" height="34.2857" fill="white"/>
</clipPath>
</defs>
</svg>
