<svg width="136" height="42" viewBox="0 0 136 42" fill="none" xmlns="http://www.w3.org/2000/svg">
<g clip-path="url(#clip0_2_3990)">
<rect width="36" height="36" transform="translate(0.0687866 4)" fill="#0079C8"/>
<path d="M31.2549 25.1825C31.139 24.9219 30.9818 24.6818 30.7893 24.4713C30.6778 24.3658 30.5432 24.2878 30.3961 24.2437C30.2491 24.1996 30.0938 24.1905 29.9426 24.2173C29.7978 24.2428 29.6607 24.3011 29.5419 24.3877C29.423 24.4743 29.3255 24.5868 29.2568 24.7168L26.81 29.9407L24.8881 8.34244C24.87 8.05418 24.7474 7.78241 24.5432 7.57818C24.339 7.37395 24.0672 7.25132 23.7789 7.23331C23.4972 7.21451 23.2178 7.29476 22.9889 7.46019C22.7601 7.62562 22.5963 7.86582 22.5259 8.13924L18.3349 26.2578L16.9548 23.6416C16.8903 23.5212 16.8007 23.4161 16.6921 23.3332C16.5835 23.2504 16.4584 23.1917 16.3252 23.1612C16.1921 23.1308 16.054 23.1291 15.9201 23.1565C15.7863 23.1839 15.6599 23.2396 15.5494 23.3199C15.3486 23.4744 15.1839 23.6709 15.0668 23.8956C14.5795 24.8207 13.8487 25.5951 12.9535 26.1352C12.0582 26.6754 11.0324 26.9607 9.98683 26.9605H0.021637V28.8655H9.9445C11.1117 28.8957 12.269 28.6454 13.3195 28.1356C14.3699 27.6259 15.2827 26.8716 15.9812 25.936L17.8015 29.3396C17.892 29.5101 18.0323 29.649 18.2038 29.7376C18.3753 29.8263 18.5698 29.8604 18.7612 29.8356C18.9527 29.8107 19.132 29.728 19.2752 29.5986C19.4184 29.4691 19.5186 29.299 19.5626 29.111L23.381 12.4064L25.1759 32.7263C25.1924 32.9669 25.288 33.1952 25.4479 33.3758C25.6078 33.5563 25.8229 33.6788 26.0598 33.7243C26.2966 33.7697 26.5418 33.7355 26.7572 33.6269C26.9725 33.5184 27.1459 33.3416 27.2502 33.1242L30.1458 27.1214C30.4186 27.6105 30.811 28.0223 31.2863 28.3185C31.7617 28.6146 32.3043 28.7854 32.8636 28.8147H35.9878V26.9351H32.8975C32.1947 26.9351 31.5682 25.8006 31.2549 25.1825Z" fill="white"/>
<path d="M50.1591 10H61.4366C64.3153 10 66.5166 10.7874 67.7442 12.2267C68.2351 12.7915 68.5951 13.4578 68.7985 14.1779C69.002 14.898 69.0438 15.6541 68.9211 16.3923V16.4685C68.7725 17.6931 68.3026 18.8566 67.5591 19.8409C66.8157 20.8253 65.825 21.5955 64.6878 22.0734C67.5072 23.0724 69.3529 24.7658 68.9211 28.1778V28.254C68.3708 32.7413 64.3745 35.1458 58.7612 35.1458H47.0688L50.1591 10ZM59.7518 24.334H52.7414L51.8948 31.2342H59.2268C62.2409 31.2342 64.2221 30.0489 64.5015 27.7799V27.7121C64.7725 25.587 63.24 24.334 59.7518 24.334ZM64.4084 17.1119C64.6539 15.1392 63.2231 13.9285 60.3868 13.9285H54.0283L53.1817 20.6171H59.2184C62.0547 20.6171 64.0951 19.4995 64.3745 17.2305L64.4084 17.1119ZM71.8759 28.254L73.3576 16.1806H77.7094L76.3802 26.9586C76.0246 29.905 77.2946 31.556 79.8769 31.556C82.4592 31.556 84.3642 29.8627 84.7282 26.8824L86.0406 16.1806H90.4263L88.098 35.1458H83.7122L84.0763 32.1994C83.3645 33.2273 82.418 34.0707 81.3151 34.6597C80.2123 35.2486 78.9849 35.5662 77.7348 35.5861C73.4592 35.5437 71.3341 32.6651 71.8759 28.254ZM94.5918 16.1806H98.9352L98.5542 19.3387C99.3535 18.2553 100.392 17.3708 101.589 16.7541C102.785 16.1373 104.108 15.8049 105.454 15.7827C109.908 15.7827 113.828 19.3048 113.074 25.6293V25.6971C112.304 31.9878 107.554 35.5437 103.058 35.5437C101.837 35.5829 100.628 35.2882 99.5611 34.6915C98.4945 34.0948 97.6107 33.2186 97.0048 32.1571L95.938 40.8523H91.5608L94.5918 16.1806ZM108.621 25.6971V25.6293C109.07 21.9633 106.928 19.5588 103.939 19.5588C102.336 19.6411 100.817 20.3015 99.6637 21.4176C98.5103 22.5337 97.8003 24.03 97.6652 25.6293V25.6971C97.2165 29.3293 99.5025 31.7676 102.449 31.7676C105.395 31.7676 108.164 29.4393 108.621 25.6971ZM115.301 25.6971V25.6293C116.072 19.3387 120.787 15.7827 125.317 15.7827C126.539 15.7426 127.748 16.0369 128.815 16.6337C129.882 17.2305 130.766 18.1072 131.371 19.1693L131.735 16.223H136.078L133.75 35.1881H129.407L129.787 32.0301C128.988 33.1135 127.95 33.998 126.753 34.6147C125.556 35.2315 124.233 35.5639 122.887 35.5861C118.442 35.5437 114.531 31.9878 115.267 25.6971H115.301ZM130.643 25.6971V25.6293C131.091 21.9633 128.805 19.5588 125.893 19.5588C122.98 19.5588 120.144 21.8532 119.687 25.6293V25.6971C119.238 29.3631 121.456 31.7676 124.403 31.7676C127.349 31.7676 130.194 29.3293 130.643 25.6971Z" fill="#0079C8"/>
</g>
<defs>
<clipPath id="clip0_2_3990">
<rect width="136" height="42" fill="white"/>
</clipPath>
</defs>
</svg>
