<svg width="205" height="36" viewBox="0 0 205 36" fill="none" xmlns="http://www.w3.org/2000/svg">
<g clip-path="url(#clip0_2_3914)">
<mask id="mask0_2_3914" style="mask-type:luminance" maskUnits="userSpaceOnUse" x="0" y="0" width="205" height="36">
<path d="M204.3 0H0V36H204.3V0Z" fill="white"/>
</mask>
<g mask="url(#mask0_2_3914)">
<mask id="mask1_2_3914" style="mask-type:luminance" maskUnits="userSpaceOnUse" x="0" y="0" width="204" height="36">
<path d="M203.578 0H0V36H203.578V0Z" fill="white"/>
</mask>
<g mask="url(#mask1_2_3914)">
<path d="M17.9981 36C27.9387 36 35.9971 27.9416 35.9971 18.001C35.9971 8.0604 27.9387 0.00195312 17.9981 0.00195312C8.05747 0.00195312 -0.000976562 8.0604 -0.000976562 18.001C-0.000976562 27.9416 8.05747 36 17.9981 36Z" fill="url(#paint0_linear_2_3914)"/>
<path d="M10.2257 27.0571C10.1622 29.2256 9.69866 31.3597 8.87958 33.5225C11.3169 34.953 14.0564 35.7904 16.8769 35.9669C19.6975 36.1433 22.52 35.654 25.1166 34.5384C21.5753 30.8136 16.3615 27.8121 10.2257 27.0571Z" fill="url(#paint1_linear_2_3914)"/>
<path opacity="0.55" d="M10.2252 27.0554C10.1916 28.1836 10.053 29.3062 9.81125 30.4087C14.3343 30.7222 18.6245 32.5317 22.006 35.552C23.0709 35.309 24.1113 34.9689 25.1141 34.5361C21.5748 30.8151 16.361 27.8116 10.2252 27.0554Z" fill="url(#paint2_linear_2_3914)" style="mix-blend-mode:multiply"/>
<path d="M10.1794 34.2185C12.5317 35.353 15.1034 35.9598 17.7148 35.9963C16.0397 32.8348 13.0864 31.4874 10.1794 34.2185Z" fill="url(#paint3_linear_2_3914)" style="mix-blend-mode:multiply"/>
<path d="M22.0275 25.2804C20.3086 24.9547 18.6285 25.3236 17.448 25.9554L17.4601 25.9605C19.8667 27.045 19.111 28.2464 19.8946 30.3825C21.8158 31.5243 23.5726 32.9224 25.1167 34.5384C26.1761 34.0813 27.1892 33.5234 28.1416 32.8722C28.1416 32.8684 28.1416 32.8627 28.1366 32.8588C26.4463 27.6101 24.2042 25.6937 22.0275 25.2804Z" fill="url(#paint4_linear_2_3914)"/>
<path d="M17.46 25.96L17.4479 25.9549C14.1289 24.5357 10.0498 24.3929 10.0556 24.4354C10.1972 25.4273 10.2531 26.0832 10.2257 27.0566C13.3054 27.4398 16.2859 28.3978 19.0119 29.881C19.3108 30.0435 19.605 30.2109 19.8945 30.3832C19.1116 28.2478 19.8666 27.0446 17.46 25.96Z" fill="url(#paint5_linear_2_3914)"/>
<path d="M26.9364 8.26331C26.9364 8.26331 25.4842 8.42079 24.8181 8.44429C23.7056 8.48302 22.757 8.53953 22.5012 8.46904C20.8889 8.18839 19.5168 6.54952 19.1142 5.73865L19.1046 5.72087C19.0854 5.67272 19.0479 5.63416 19.0002 5.61369C18.9526 5.5932 18.8988 5.59247 18.8507 5.61165C18.6919 5.658 18.4436 5.80722 18.003 5.99264L17.9674 6.00788H17.9642C17.6141 6.15068 17.2555 6.27177 16.8905 6.37045C15.195 6.83526 13.4648 6.90574 11.0919 8.09314C8.75704 9.26274 6.98292 11.0045 6.17205 13.0695C4.5935 17.0698 6.40254 19.959 8.54814 21.8321C9.32209 22.5118 9.85219 23.4262 10.0575 24.4356C10.0517 24.393 14.1309 24.5358 17.4499 25.955C18.6125 25.3321 20.2615 24.9658 21.9544 25.2667C21.0654 23.5434 21.8611 22.4093 22.1176 21.9807C22.4249 21.4657 22.5316 21.3533 22.9513 20.9248C22.8338 20.8841 22.618 20.8689 22.5621 20.7025C22.5621 20.7025 23.6174 19.7621 24.2625 18.6966C24.2699 18.6848 24.2765 18.6725 24.2823 18.6598C24.8854 17.3784 25.3407 16.3357 25.3407 16.3357C27.0158 14.7782 28.0895 13.5419 28.4623 12.4364C30.1938 11.9532 30.5215 7.76105 26.9364 8.26331Z" fill="url(#paint6_linear_2_3914)"/>
<path opacity="0.87" d="M21.9519 25.2664C21.0629 23.5431 21.8585 22.409 22.115 21.9804C22.4224 21.4654 22.529 21.353 22.9487 20.9244C22.8313 20.8839 22.6154 20.8686 22.5596 20.7022C22.5596 20.7022 23.6117 19.7644 24.2574 18.7014C24.2663 18.6862 24.2746 18.6703 24.2822 18.6544C24.8842 17.3756 25.3382 16.3354 25.3382 16.3354C27.0132 14.7779 28.087 13.5416 28.4597 12.4361C30.1907 11.9529 30.5171 7.76075 26.9358 8.26302C26.9358 8.26302 25.4836 8.4205 24.8175 8.44399C23.705 8.48272 22.7564 8.53924 22.5004 8.46876C20.8883 8.18809 19.5161 6.54858 19.1128 5.73454C18.911 5.32752 18.678 5.87551 16.8905 6.36635C15.195 6.83115 13.4648 6.90163 11.0919 8.08904C8.75704 9.25865 6.98292 11.0004 6.17205 13.0654C4.5935 17.0657 6.40254 19.9549 8.54814 21.8281C9.32209 22.5077 9.85219 23.422 10.0575 24.4314C10.0517 24.3889 14.1309 24.5317 17.4499 25.951C18.61 25.3318 20.259 24.9655 21.9519 25.2664Z" fill="url(#paint7_linear_2_3914)" style="mix-blend-mode:multiply"/>
<path d="M24.308 18.6051V18.6173C23.6953 19.6681 22.6539 20.6181 22.5663 20.6968L22.5612 20.7012C22.6171 20.8677 22.833 20.8829 22.9504 20.9235C22.5308 21.3521 22.424 21.4644 22.1168 21.9794C21.8628 22.4094 21.0608 23.5358 21.9497 25.2585C21.9495 25.2608 21.9495 25.2632 21.9497 25.2654L21.9084 25.2585L21.8602 25.2502L21.8101 25.2426C21.7745 25.2367 21.739 25.2316 21.7034 25.2273L21.6272 25.2159L21.4944 25.2007H21.4729L21.3776 25.1855C21.3034 25.1785 21.2296 25.1727 21.156 25.1683C20.6132 25.1338 20.0683 25.1613 19.5318 25.2502H19.5241C19.4296 25.2661 19.3336 25.2839 19.2434 25.3029C18.966 25.361 18.6922 25.4359 18.4237 25.527C18.2891 25.5728 18.1596 25.6242 18.0332 25.6769C17.9646 25.7049 17.8973 25.734 17.8312 25.7633C17.7678 25.7925 17.7043 25.8223 17.6408 25.8522L17.6269 25.8591C17.5633 25.889 17.5062 25.9194 17.4478 25.9512C17.3665 25.9163 17.2852 25.8826 17.2033 25.8496L17.1626 25.8331C17.0871 25.802 17.0103 25.7696 16.9334 25.743L16.8744 25.7207C16.8109 25.6935 16.7474 25.6687 16.6794 25.6477L16.5911 25.6172C16.5156 25.5906 16.44 25.5639 16.3645 25.5385C16.2743 25.5081 16.1842 25.4782 16.094 25.4496L16.04 25.4325C15.8635 25.3766 15.6872 25.3236 15.511 25.2737L15.4578 25.2591C15.3784 25.2369 15.2996 25.2153 15.2203 25.1956L15.1924 25.188L14.9599 25.1276H14.9523C14.8603 25.1048 14.7688 25.0819 14.6774 25.0604L14.6291 25.049L14.391 24.9937L14.3707 24.9892L14.1008 24.9302L14.0843 24.927C13.8226 24.8718 13.5668 24.8223 13.3185 24.7784L13.2817 24.7714L13.0518 24.7321H13.048H13.0366L12.8258 24.6984H12.8105H12.8016L12.6359 24.673H12.6276L12.4771 24.6508L12.4346 24.6444L12.3171 24.6286L12.2746 24.6229L12.1286 24.6038H12.1241L11.9768 24.5854H11.9615L11.8345 24.5695H11.8123C11.7107 24.5575 11.613 24.5467 11.5184 24.5371H11.5069L11.3285 24.5187H11.3152L11.2485 24.513L11.2142 24.5099L11.1227 24.5016H11.1152L11.0485 24.4958H11.0453H11.0192L10.858 24.4831H10.837L10.6726 24.4717L10.6027 24.4673H10.5944L10.5348 24.4641L10.4713 24.4609H10.456H10.4103H10.4071H10.3633H10.3602H10.3367H10.2852H10.2452H10.2382H10.1893H10.1004H10.0827H10.075H10.0661H10.0592C10.0484 24.4146 10.0357 24.3682 10.0237 24.3219C10.0058 24.2584 9.98676 24.1905 9.96651 24.125V24.1219C9.92799 23.9949 9.88452 23.8719 9.83628 23.753C9.83628 23.7478 9.83187 23.7422 9.82998 23.7364C9.76221 23.5509 9.67896 23.3715 9.58104 23.1999L9.54549 23.1364L9.51246 23.078C9.48195 23.0227 9.47313 23.0075 9.43947 22.9554C9.38529 22.8666 9.32877 22.7793 9.26991 22.6938C9.23562 22.6443 9.2007 22.596 9.16452 22.5478L9.15183 22.53C9.06057 22.405 8.96197 22.2857 8.85653 22.1725C8.80129 22.109 8.74478 22.0519 8.68636 21.9935C8.6127 21.9191 8.53714 21.8461 8.4584 21.7763C8.37585 21.7032 8.29394 21.6277 8.21266 21.5508L8.19742 21.5369C8.11741 21.4607 8.03741 21.3825 7.95867 21.3038L7.95486 21.2994L7.95169 21.2962C7.87168 21.2153 7.79273 21.1332 7.71484 21.0498V21.0467C7.63547 20.9616 7.558 20.8752 7.48117 20.7869V20.7838C7.42339 20.7171 7.36688 20.6491 7.31036 20.5806C6.44933 19.5266 5.79214 18.2559 5.63149 16.7581C5.52926 15.7992 5.63149 14.7477 6.01247 13.6003V13.5965C6.03723 13.526 6.06009 13.4555 6.08549 13.3851V13.3787C5.49179 19.3144 9.23373 20.3806 13.0341 20.0053C12.7813 20.2282 12.514 20.4342 12.234 20.6219C12.2086 20.6403 12.2047 20.6911 12.2435 20.6981C13.3007 20.8797 14.2925 20.4219 15.2412 20.0098C15.0454 20.2804 14.8252 20.5325 14.5834 20.7628C14.5777 20.7687 14.5738 20.7761 14.5723 20.7841C14.5707 20.7921 14.5715 20.8004 14.5747 20.808C14.5777 20.8155 14.583 20.822 14.5897 20.8266C14.5965 20.8312 14.6044 20.8338 14.6126 20.834C15.9892 20.8181 17.1734 19.9495 18.2319 19.1544C18.178 19.3151 18.1246 19.4763 18.0713 19.637C18.069 19.644 18.0688 19.6516 18.0705 19.6588C18.0721 19.666 18.0758 19.6725 18.0809 19.6779C18.086 19.6832 18.0925 19.6869 18.0997 19.6888C18.1068 19.6906 18.1144 19.6905 18.1215 19.6885C19.093 19.371 19.8994 18.736 20.5286 17.9499C20.6711 17.7449 20.8551 17.5722 21.0685 17.4428C21.2819 17.3135 21.5202 17.2303 21.7678 17.1987C22.0153 17.1672 22.2668 17.188 22.5058 17.2597C22.7449 17.3315 22.9663 17.4526 23.1556 17.6152L24.308 18.6051Z" fill="url(#paint8_linear_2_3914)" style="mix-blend-mode:multiply"/>
<path d="M10.692 15.1218C10.3681 14.692 10.1408 14.1097 10.2144 13.5643C10.0361 13.6607 9.86335 13.7674 9.68362 13.8607C9.67723 13.8644 9.66994 13.8663 9.66256 13.8663C9.65518 13.8663 9.64798 13.8643 9.64159 13.8607C9.6352 13.857 9.6298 13.8518 9.62611 13.8455C9.62233 13.8391 9.62026 13.8319 9.62008 13.8245C9.66013 13.2918 9.93382 12.8537 10.1053 12.3641C9.8683 12.4018 9.63403 12.4542 9.40354 12.521C9.39526 12.5235 9.38644 12.5234 9.37825 12.5207C9.36997 12.5179 9.36286 12.5128 9.35764 12.5058C9.35251 12.4988 9.34963 12.4905 9.34945 12.4818C9.34927 12.4732 9.35179 12.4646 9.35656 12.4574C9.91663 11.6041 10.8736 11.0434 11.828 10.7138L11.8508 10.6624C11.9051 10.566 11.9273 10.4548 11.9143 10.3449V10.3328C11.6451 9.27937 9.44674 10.1741 8.4143 11.3996C7.4377 12.5584 7.18371 14.1008 7.4777 15.3949C7.78249 16.7334 8.674 17.8078 9.9592 17.9151C10.2441 17.9406 10.5312 17.9228 10.8107 17.8624L10.8406 17.8554C11.0464 17.807 11.2454 17.7332 11.433 17.6357C12.0089 17.3347 12.3975 16.6121 12.1759 15.8857C11.6349 15.6857 11.0711 15.6241 10.692 15.1218Z" fill="url(#paint9_linear_2_3914)" style="mix-blend-mode:multiply"/>
<path d="M27.0288 8.25291L27.018 8.26942C26.9617 8.3734 26.9205 8.48476 26.8954 8.60025L26.9005 8.60469C26.9975 8.69274 27.112 8.75938 27.2364 8.80027C27.3837 8.84789 27.4421 8.92726 27.5241 9.06316C27.5737 9.15973 27.6149 9.26044 27.6472 9.36412C27.6637 9.40597 27.6836 9.44629 27.7069 9.48481C28.5774 9.77119 29.8023 9.90763 29.6639 10.897C29.9287 9.58696 29.2657 7.98369 27.0288 8.25291Z" fill="url(#paint10_linear_2_3914)" style="mix-blend-mode:multiply"/>
<path opacity="0.8" d="M28.463 12.4366C24.8436 14.7225 21.4732 12.3604 19.4552 13.8233C19.2717 13.9814 17.89 15.339 17.6303 15.6698C17.577 15.7378 17.1858 16.181 17.229 16.4001C17.2557 16.534 17.6233 17.2186 17.9985 17.19C18.1643 17.1531 19.2342 17.0535 19.3784 17.1506C19.492 17.2275 20.5245 17.3842 20.5664 17.5043C20.7645 18.0758 21.362 16.6496 21.8211 17.016C22.1621 17.289 24.0436 18.4333 24.309 18.6035C24.3985 18.4129 24.4848 18.2282 24.563 18.0517L24.568 18.0421L24.6239 17.9196L24.6271 17.9125C24.6868 17.7856 24.744 17.6586 24.7979 17.5411C25.1154 16.8262 25.3383 16.3347 25.3383 16.3347C27.0114 14.7784 28.0852 13.5446 28.4585 12.4385L28.463 12.4366Z" fill="url(#paint11_radial_2_3914)" style="mix-blend-mode:multiply"/>
<path opacity="0.71" d="M29.7168 10.2769C29.7168 10.2102 29.7105 10.1442 29.7041 10.0788C29.6978 10.0134 29.6889 9.95686 29.6781 9.89656C29.6717 9.85912 29.6642 9.82231 29.6559 9.78604C29.6196 9.62602 29.5655 9.4705 29.4946 9.32254C29.452 9.23425 29.4028 9.14929 29.3473 9.06856C29.313 9.01969 29.2768 8.97203 29.2381 8.92631C29.2126 8.89647 29.1866 8.86663 29.1594 8.83805C29.0884 8.76453 29.0115 8.69699 28.9295 8.63613C28.8727 8.59418 28.8136 8.5556 28.7523 8.52056C28.3161 8.26657 27.7192 8.15418 26.9356 8.26657C26.9356 8.26657 25.4866 8.42404 24.8199 8.44754C23.9188 8.47928 23.1359 8.5212 22.7245 8.49961C22.6501 8.49762 22.5761 8.48847 22.5035 8.4723C24.63 9.1447 21.1637 14.5319 26.5572 15.1535C27.2322 14.4513 27.7497 13.8201 28.097 13.2276C28.0984 13.2243 28.1002 13.2212 28.1021 13.2181C28.1326 13.1661 28.1624 13.114 28.1903 13.0626C28.2157 13.015 28.2399 12.9679 28.2634 12.9215L28.2761 12.8955C28.2996 12.8473 28.3225 12.7997 28.3434 12.7521C28.3434 12.7521 28.3434 12.7463 28.3466 12.7438C28.3663 12.7 28.384 12.6568 28.4012 12.6168L28.4145 12.5819C28.4323 12.5362 28.4488 12.4911 28.464 12.4454C28.4825 12.4402 28.5008 12.4346 28.5187 12.4282L28.5745 12.4085C28.6282 12.3878 28.6804 12.3634 28.7307 12.3355C28.7599 12.3196 28.7885 12.3032 28.8165 12.2847C28.8317 12.2753 28.8469 12.2653 28.8622 12.2542C28.9237 12.2114 28.9819 12.1637 29.0362 12.112L29.0425 12.1069C29.3054 11.841 29.4961 11.5126 29.5969 11.1525C29.6836 10.869 29.7241 10.5734 29.7168 10.2769Z" fill="url(#paint12_linear_2_3914)" style="mix-blend-mode:multiply"/>
<path d="M15.1183 8.733C15.2603 8.73419 15.4022 8.72357 15.5424 8.70125C15.5507 8.69873 15.5596 8.69883 15.5678 8.70153C15.576 8.70425 15.5832 8.70945 15.5883 8.7164C15.5936 8.72337 15.5964 8.73175 15.5966 8.74041C15.5968 8.74906 15.5943 8.75757 15.5894 8.76475C15.2148 9.54447 14.8909 10.2887 15.0294 11.1738C15.0886 11.5627 15.2223 11.9366 15.4231 12.2749C15.4515 12.2876 15.4806 12.2996 15.5107 12.3111C16.1806 9.44484 21.5081 11.2069 22.5005 8.47076C20.8884 8.19009 19.5161 6.55122 19.1136 5.74035L19.104 5.72258C19.0848 5.67442 19.0473 5.63587 18.9996 5.61539C18.952 5.59491 18.8982 5.59419 18.85 5.61336C18.6913 5.65971 18.4431 5.80893 18.0023 5.99434L17.9668 6.00958H17.9636C17.8633 6.05149 17.7541 6.09468 17.634 6.13658C16.566 6.66234 15.6631 7.67322 15.1183 8.733Z" fill="url(#paint13_radial_2_3914)" style="mix-blend-mode:multiply"/>
<path opacity="0.83" d="M15.1183 8.733C15.2603 8.73419 15.4022 8.72357 15.5424 8.70125C15.5507 8.69873 15.5596 8.69883 15.5678 8.70153C15.576 8.70425 15.5832 8.70945 15.5883 8.7164C15.5936 8.72337 15.5964 8.73175 15.5966 8.74041C15.5968 8.74906 15.5943 8.75757 15.5894 8.76475C15.2148 9.54447 14.8909 10.2887 15.0294 11.1738C15.0848 11.5328 15.2025 11.8792 15.3774 12.1974C15.4067 12.2498 15.4538 12.2901 15.51 12.3111C16.18 9.44484 21.5075 11.2069 22.4999 8.47076C20.8877 8.19009 19.5155 6.55122 19.1129 5.74035L19.1034 5.72258C19.0842 5.67442 19.0467 5.63587 18.999 5.61539C18.9514 5.59491 18.8976 5.59419 18.8494 5.61336C18.6906 5.65971 18.4424 5.80893 18.0017 5.99434L17.9661 6.00958H17.963C17.8626 6.05149 17.7535 6.09468 17.6334 6.13658C16.566 6.66234 15.6631 7.67322 15.1183 8.733Z" fill="url(#paint14_linear_2_3914)" style="mix-blend-mode:multiply"/>
<path d="M19.2603 8.23882C18.2544 8.35312 17.8315 10.2898 17.2283 10.7C18.3109 10.3533 19.6895 10.2917 20.7874 9.92916C20.9277 8.64267 20.1346 8.13913 19.2603 8.23882Z" fill="url(#paint15_linear_2_3914)" style="mix-blend-mode:multiply"/>
<path d="M19.5512 9.19162C19.0312 9.22213 18.7518 10.1733 18.4324 10.4184C19.063 10.3047 19.7195 10.212 20.3214 10.0616C20.3938 9.43354 20.0014 9.16498 19.5512 9.19162Z" fill="url(#paint16_linear_2_3914)" style="mix-blend-mode:multiply"/>
<path d="M79.6572 23.4538C79.2936 23.452 78.9303 23.4308 78.5689 23.3903V25.2616H75.9216V12.938H78.0806L78.2863 13.9857C79.1283 13.2237 80.1144 12.7125 81.1406 12.7125C83.6055 12.7125 84.798 14.9305 84.798 17.6622C84.798 21.726 82.6194 23.4538 79.6623 23.4538M80.402 14.7451C79.9094 14.7451 79.2318 15.0334 78.5739 15.608V21.3596C78.9232 21.5032 79.3543 21.5647 79.8065 21.5647C81.1399 21.5647 82.086 20.4757 82.086 18.0317C82.086 15.916 81.4511 14.7451 80.402 14.7451Z" fill="white"/>
<path d="M44.8344 23.7102C42.0595 23.7102 40.6512 21.9443 40.6512 18.3694C40.6512 15.0257 42.3955 12.7397 45.1499 12.7397C46.4116 12.7397 47.4206 13.202 48.1775 14.0636L47.2308 15.4517C46.7598 15.0053 46.1354 14.7566 45.4865 14.757C44.2458 14.757 43.4476 15.893 43.4476 18.0995C43.4476 20.6642 44.141 21.6745 45.3602 21.6745C46.2009 21.6745 46.8948 21.4002 47.5883 20.7912L48.4093 22.178C47.5883 23.0194 46.4326 23.7134 44.8344 23.7134" fill="white"/>
<path d="M53.3489 23.731C50.4478 23.731 48.7029 22.3226 48.7029 18.4537C48.7029 14.5657 50.6579 12.7389 53.7909 12.7389C56.6921 12.7389 58.4364 14.1473 58.4364 17.9946C58.4364 21.9048 56.4813 23.7328 53.3489 23.7328M53.5395 14.7353C52.2975 14.7334 51.4758 15.5976 51.4758 17.9926C51.4758 20.9568 52.2123 21.7339 53.6004 21.7339C54.8405 21.7339 55.6602 20.8723 55.6602 18.4759C55.6602 15.5118 54.9034 14.7334 53.5369 14.7334" fill="white"/>
<path d="M74.2661 23.5006H71.5541C71.5541 21.3772 71.6176 19.2119 71.6176 17.9922C71.6176 15.4694 71.1547 14.9017 70.2511 14.9017C69.7044 14.9017 68.9482 15.3012 68.2535 15.8478C68.317 16.1844 68.3589 16.6676 68.3589 17.4245V23.5006H65.6672V17.9922C65.6672 15.5119 65.205 14.9017 64.3224 14.9017C63.8182 14.9017 63.1236 15.2383 62.4307 15.764V23.5006H59.7181V12.9683H61.9469L62.1374 14.082C62.9781 13.3042 64.0513 12.7371 65.2488 12.7371C66.5518 12.7371 67.4134 13.3879 67.8135 14.2502C68.8224 13.3467 69.9152 12.7371 71.1788 12.7371C73.2394 12.7371 74.3322 14.082 74.3322 17.488C74.3322 18.7904 74.2686 21.188 74.2686 23.5006" fill="white"/>
<path d="M92.4084 23.4997L92.2176 22.4279C91.314 23.2057 90.3474 23.7308 89.0022 23.7308C86.8788 23.7308 85.7435 22.68 85.7435 20.7255C85.7435 18.538 87.4877 17.0884 91.1673 17.0884H91.8189V16.2896C91.8189 15.2171 91.2096 14.6913 89.8638 14.6913C88.7704 14.6913 87.6147 14.986 86.668 15.3225L86.3105 13.6823C87.5512 13.1356 88.9812 12.7363 90.5571 12.7363C93.2481 12.7363 94.4883 14.0182 94.4883 16.0152V23.4997H92.4084ZM91.8198 18.7278H91.0206C88.9602 18.7278 88.3926 19.4219 88.3926 20.389C88.3926 21.2716 88.8758 21.8183 89.8009 21.8183C90.4527 21.8183 91.1682 21.4608 91.8198 20.8931V18.7278Z" fill="white"/>
<path d="M102.057 15.3641C101.757 15.27 101.444 15.2203 101.13 15.2168C100.542 15.2168 100.038 15.6162 99.0918 16.8144V23.5H96.381V12.9683H98.6094L98.82 14.6079C99.8919 13.1994 100.606 12.7582 101.363 12.7582C101.72 12.7581 102.071 12.837 102.393 12.9893L102.057 15.3641Z" fill="white"/>
<path d="M105.086 18.7725V18.9192C105.086 20.854 105.947 21.6744 107.439 21.6744C108.385 21.6744 109.625 21.4839 110.868 21.0648L111.249 22.6192C109.968 23.2923 108.455 23.7337 106.919 23.7337C104.143 23.7337 102.335 22.3678 102.335 18.5198C102.335 14.757 104.143 12.7415 107.107 12.7415C109.798 12.7415 111.586 14.2547 111.312 18.7739L105.086 18.7725ZM108.7 17.0492C108.7 15.3665 108.112 14.5475 106.977 14.5475C105.82 14.5475 105.189 15.6193 105.106 17.0911H108.7V17.0492Z" fill="white"/>
<path d="M153.707 23.5006H150.995C150.995 21.3772 151.059 19.2119 151.059 17.9922C151.059 15.4694 150.595 14.9017 149.693 14.9017C149.145 14.9017 148.389 15.3012 147.695 15.8478C147.758 16.1844 147.8 16.6676 147.8 17.4245V23.5006H145.109V17.9922C145.109 15.5119 144.645 14.9017 143.763 14.9017C143.256 14.9017 142.566 15.2383 141.872 15.764V23.5006H139.16V12.9683H141.388L141.578 14.082C142.42 13.3042 143.492 12.7371 144.69 12.7371C145.993 12.7371 146.854 13.3879 147.254 14.2502C148.263 13.3467 149.356 12.7371 150.62 12.7371C152.679 12.7371 153.772 14.082 153.772 17.488C153.772 18.7904 153.709 21.188 153.709 23.5006" fill="white"/>
<path d="M161.676 23.4997L161.485 22.4279C160.581 23.2057 159.614 23.7308 158.269 23.7308C156.145 23.7308 155.009 22.68 155.009 20.7255C155.009 18.538 156.754 17.0884 160.434 17.0884H161.085V16.2896C161.085 15.2171 160.474 14.6913 159.13 14.6913C158.036 14.6913 156.881 14.986 155.934 15.3225L155.577 13.6823C156.818 13.1356 158.248 12.7363 159.824 12.7363C162.515 12.7363 163.755 14.0182 163.755 16.0152V23.4997H161.676ZM161.086 18.7278H160.288C158.228 18.7278 157.66 19.4219 157.66 20.389C157.66 21.2716 158.143 21.8183 159.069 21.8183C159.72 21.8183 160.436 21.4608 161.086 20.8931V18.7278Z" fill="white"/>
<path d="M171.535 15.3641C171.235 15.2703 170.923 15.2209 170.608 15.2174C170.021 15.2174 169.517 15.6168 168.57 16.815V23.5H165.858V12.9683H168.087L168.296 14.6079C169.369 13.1994 170.084 12.7582 170.841 12.7582C171.197 12.7582 171.549 12.8371 171.87 12.9893L171.535 15.3641Z" fill="white"/>
<path d="M178.431 23.5006L175.614 18.2874V23.5006H172.901V11.2157H175.614V17.0251L178.031 12.9683H181.184L178.051 17.3622L181.606 23.5006H178.431Z" fill="white"/>
<path d="M184.339 18.7725V18.9192C184.339 20.854 185.202 21.6744 186.694 21.6744C187.64 21.6744 188.879 21.4839 190.123 21.0648L190.504 22.6199C189.221 23.2923 187.71 23.7337 186.172 23.7337C183.397 23.7337 181.59 22.3678 181.59 18.5198C181.59 14.757 183.397 12.7415 186.362 12.7415C189.053 12.7415 190.84 14.2547 190.567 18.7739L184.339 18.7725ZM187.955 17.0492C187.955 15.3665 187.367 14.5475 186.231 14.5475C185.075 14.5475 184.444 15.6193 184.36 17.0911H187.955V17.0492Z" fill="white"/>
<path d="M195.124 23.7101C193.169 23.7101 192.453 22.9742 192.453 20.9562V14.8605H191.107V12.9676H192.537C192.788 12.3968 193.006 11.8119 193.189 11.2157H195.144V12.9683H197.478V14.8598H195.144V20.2832C195.144 21.3556 195.398 21.6915 196.112 21.6915C196.429 21.6915 196.87 21.6497 197.542 21.4604L197.752 23.0161C196.763 23.5241 195.923 23.7101 195.124 23.7101Z" fill="white"/>
<path d="M116.197 23.6468C114.447 23.6468 113.821 22.8969 113.821 20.8758V14.3527H112.154V13.1462H113.843C114.009 12.2293 114.155 12.3087 114.28 11.2255H115.468V13.1462H118.239V14.3527H115.468V20.4587C115.468 21.8759 115.697 22.3757 116.698 22.3757C117.051 22.3757 117.531 22.3121 118.301 22.0423L118.511 23.0424C117.677 23.4386 116.885 23.6468 116.197 23.6468Z" fill="white"/>
<path d="M127.804 23.4798H126.178C126.178 21.5208 126.22 19.2501 126.22 17.979C126.22 15.2486 125.511 14.3113 124.24 14.3113C123.552 14.3113 122.615 14.7488 121.7 15.5406V23.4778H120.053V11.2228H121.698V14.2707C122.553 13.5627 123.574 12.9785 124.803 12.9785C126.679 12.9785 127.867 14.1666 127.867 17.563C127.867 18.8133 127.803 21.3348 127.803 23.481" fill="white"/>
<path d="M131.013 18.5187V18.7269C131.013 21.3106 132.013 22.3527 133.868 22.3527C134.906 22.3446 135.932 22.1323 136.889 21.7278L137.202 22.7069C136.051 23.3125 134.772 23.6341 133.471 23.6448C130.972 23.6448 129.304 22.2904 129.304 18.6234C129.304 15.0174 130.867 12.9753 133.534 12.9753C135.973 12.9753 137.452 14.5386 137.223 18.5187H131.013ZM135.618 17.3306C135.618 15.3507 134.91 14.1633 133.43 14.1633C131.906 14.1633 131.117 15.6428 131.013 17.4144H135.618V17.3306Z" fill="white"/>
<path d="M201.052 13.7213C200.558 13.7169 200.076 13.5664 199.668 13.2888C199.259 13.0113 198.942 12.619 198.756 12.1614C198.57 11.7038 198.523 11.2013 198.622 10.7174C198.721 10.2333 198.96 9.78936 199.311 9.44142C199.662 9.09348 200.108 8.85709 200.593 8.76201C201.077 8.66693 201.579 8.71742 202.036 8.90711C202.492 9.09681 202.882 9.41721 203.156 9.82806C203.431 10.2388 203.577 10.7217 203.577 11.2157C203.58 11.5471 203.516 11.8757 203.39 12.1822C203.264 12.4887 203.078 12.7668 202.843 13.0003C202.607 13.2338 202.327 13.4178 202.02 13.5416C201.712 13.6655 201.384 13.7265 201.052 13.7213ZM201.052 9.1437C200.643 9.14262 200.243 9.26286 199.902 9.48939C199.561 9.71583 199.294 10.0384 199.137 10.4161C198.979 10.7939 198.938 11.2098 199.016 11.6114C199.095 12.013 199.291 12.3822 199.58 12.6722C199.869 12.9621 200.237 13.16 200.639 13.2407C201.04 13.3213 201.456 13.2811 201.835 13.1252C202.213 12.9692 202.537 12.7046 202.765 12.3647C202.992 12.0248 203.115 11.6249 203.116 11.2157C203.117 10.9438 203.065 10.6742 202.963 10.4225C202.859 10.1709 202.708 9.94209 202.516 9.7494C202.324 9.55671 202.096 9.40398 201.845 9.30003C201.594 9.19608 201.324 9.14298 201.052 9.1437ZM201.311 11.3427L202.067 12.572H201.469L200.839 11.4221H200.748V12.572H200.263V9.8187H200.984C201.672 9.8187 201.943 10.1571 201.943 10.5743C201.943 10.9248 201.706 11.2068 201.311 11.3427ZM200.93 10.2042H200.749V11.0499H200.964C201.268 11.0499 201.449 10.8595 201.449 10.6328C201.446 10.3724 201.311 10.2035 200.929 10.2035L200.93 10.2042Z" fill="white"/>
</g>
</g>
</g>
<defs>
<linearGradient id="paint0_linear_2_3914" x1="8.19403" y1="2.90379" x2="27.8027" y2="33.0989" gradientUnits="userSpaceOnUse">
<stop stop-color="#D6D6D6"/>
<stop offset="0.03" stop-color="#E0E0E0"/>
<stop offset="0.09" stop-color="#EBEBEB"/>
<stop offset="0.15" stop-color="#EFEFEF"/>
<stop offset="0.64" stop-color="#EFEFEF"/>
<stop offset="0.73" stop-color="#EFEFEF"/>
<stop offset="0.8" stop-color="#EAEAEA"/>
<stop offset="0.88" stop-color="#DADADA"/>
<stop offset="0.98" stop-color="#C0C0C0"/>
<stop offset="1" stop-color="#BABABA"/>
</linearGradient>
<linearGradient id="paint1_linear_2_3914" x1="8.5659" y1="30.806" x2="34.0374" y2="34.567" gradientUnits="userSpaceOnUse">
<stop offset="0.1" stop-color="#641724"/>
<stop offset="0.21" stop-color="#711825"/>
<stop offset="0.42" stop-color="#941B26"/>
<stop offset="0.58" stop-color="#B31E28"/>
<stop offset="1" stop-color="#D2202F"/>
</linearGradient>
<linearGradient id="paint2_linear_2_3914" x1="9.73484" y1="30.3569" x2="31.9186" y2="33.6407" gradientUnits="userSpaceOnUse">
<stop offset="0.08" stop-color="#95191D"/>
<stop offset="0.2" stop-color="#9A2327" stop-opacity="0.96"/>
<stop offset="0.36" stop-color="#A63F42" stop-opacity="0.84"/>
<stop offset="0.56" stop-color="#BC6D6F" stop-opacity="0.64"/>
<stop offset="0.77" stop-color="#D9ADAE" stop-opacity="0.36"/>
<stop offset="1" stop-color="white" stop-opacity="0"/>
</linearGradient>
<linearGradient id="paint3_linear_2_3914" x1="12.3516" y1="45.8749" x2="14.2939" y2="32.7532" gradientUnits="userSpaceOnUse">
<stop stop-color="white" stop-opacity="0"/>
<stop offset="1" stop-color="#95191D"/>
</linearGradient>
<linearGradient id="paint4_linear_2_3914" x1="17.448" y1="29.849" x2="29.5698" y2="29.849" gradientUnits="userSpaceOnUse">
<stop stop-color="#B59F2C"/>
<stop offset="0.87" stop-color="#F0EEC5"/>
</linearGradient>
<linearGradient id="paint5_linear_2_3914" x1="11.5287" y1="29.013" x2="19.4399" y2="25.3288" gradientUnits="userSpaceOnUse">
<stop stop-color="#B59F2C"/>
<stop offset="0.87" stop-color="#F0EEC5"/>
</linearGradient>
<linearGradient id="paint6_linear_2_3914" x1="8.43447" y1="22.6423" x2="28.7836" y2="7.30769" gradientUnits="userSpaceOnUse">
<stop stop-color="#25130E"/>
<stop offset="0.02" stop-color="#2A1711"/>
<stop offset="0.46" stop-color="#AC8864"/>
<stop offset="0.66" stop-color="#E0B585"/>
<stop offset="0.8" stop-color="#E9C08F"/>
<stop offset="1" stop-color="#FBD6A4"/>
</linearGradient>
<linearGradient id="paint7_linear_2_3914" x1="21.3455" y1="26.0462" x2="18.0435" y2="14.8261" gradientUnits="userSpaceOnUse">
<stop stop-color="#6A4634"/>
<stop offset="0.17" stop-color="#93796B" stop-opacity="0.73"/>
<stop offset="0.4" stop-color="#C2B3AB" stop-opacity="0.41"/>
<stop offset="0.62" stop-color="#E3DDDA" stop-opacity="0.18"/>
<stop offset="0.83" stop-color="#F8F6F5" stop-opacity="0.05"/>
<stop offset="1" stop-color="white" stop-opacity="0"/>
</linearGradient>
<linearGradient id="paint8_linear_2_3914" x1="21.946" y1="15.3675" x2="3.91007" y2="24.3117" gradientUnits="userSpaceOnUse">
<stop stop-color="white"/>
<stop offset="0.11" stop-color="#FBFAFA"/>
<stop offset="0.24" stop-color="#F0EDEB"/>
<stop offset="0.39" stop-color="#DFD7D3"/>
<stop offset="0.54" stop-color="#C6B8B1"/>
<stop offset="0.7" stop-color="#A59085"/>
<stop offset="0.86" stop-color="#7F6050"/>
<stop offset="1" stop-color="#5A321E"/>
</linearGradient>
<linearGradient id="paint9_linear_2_3914" x1="7.69424" y1="13.4385" x2="13.6287" y2="14.3605" gradientUnits="userSpaceOnUse">
<stop offset="0.1" stop-color="#5B331F"/>
<stop offset="0.47" stop-color="#B3A197" stop-opacity="0.78"/>
<stop offset="0.74" stop-color="#EAE5E2" stop-opacity="0.65"/>
<stop offset="0.88" stop-color="white" stop-opacity="0.6"/>
</linearGradient>
<linearGradient id="paint10_linear_2_3914" x1="27.0814" y1="10.2779" x2="29.8659" y2="8.72788" gradientUnits="userSpaceOnUse">
<stop offset="0.14" stop-color="white"/>
<stop offset="0.3" stop-color="#DAD2CD"/>
<stop offset="0.55" stop-color="#A48E83"/>
<stop offset="0.76" stop-color="#7C5C4C"/>
<stop offset="0.92" stop-color="#633E2B"/>
<stop offset="1" stop-color="#5A321E"/>
</linearGradient>
<radialGradient id="paint11_radial_2_3914" cx="0" cy="0" r="1" gradientUnits="userSpaceOnUse" gradientTransform="translate(27.9199 10.7764) rotate(-10.9722) scale(9.89523 7.17344)">
<stop offset="0.21" stop-color="#5A321E"/>
<stop offset="0.49" stop-color="#5E3724" stop-opacity="0.97"/>
<stop offset="0.63" stop-color="#6D4938" stop-opacity="0.89"/>
<stop offset="0.75" stop-color="#86685A" stop-opacity="0.74"/>
<stop offset="0.85" stop-color="#A9948A" stop-opacity="0.52"/>
<stop offset="0.94" stop-color="#D6CCC7" stop-opacity="0.25"/>
<stop offset="1" stop-color="white" stop-opacity="0"/>
</radialGradient>
<linearGradient id="paint12_linear_2_3914" x1="23.0572" y1="12.4282" x2="29.5753" y2="9.68578" gradientUnits="userSpaceOnUse">
<stop offset="0.21" stop-color="white" stop-opacity="0.2"/>
<stop offset="0.44" stop-color="#C1B2AB" stop-opacity="0.51"/>
<stop offset="0.76" stop-color="#816354" stop-opacity="0.84"/>
<stop offset="0.96" stop-color="#6A4634" stop-opacity="0.96"/>
</linearGradient>
<radialGradient id="paint13_radial_2_3914" cx="0" cy="0" r="1" gradientUnits="userSpaceOnUse" gradientTransform="translate(21.8433 10.1126) scale(6.29198 5.34819)">
<stop stop-color="#623C29"/>
<stop offset="0.02" stop-color="#684432" stop-opacity="0.98"/>
<stop offset="0.23" stop-color="#9E877B" stop-opacity="0.85"/>
<stop offset="0.43" stop-color="#C9BBB5" stop-opacity="0.74"/>
<stop offset="0.63" stop-color="#E7E1DE" stop-opacity="0.66"/>
<stop offset="0.82" stop-color="#F9F7F7" stop-opacity="0.62"/>
<stop offset="1" stop-color="white" stop-opacity="0.6"/>
</radialGradient>
<linearGradient id="paint14_linear_2_3914" x1="14.5037" y1="8.95207" x2="22.8288" y2="8.95207" gradientUnits="userSpaceOnUse">
<stop stop-color="#FEFDFD"/>
<stop offset="0.11" stop-color="#D8CEC9"/>
<stop offset="0.22" stop-color="#B6A59C"/>
<stop offset="0.33" stop-color="#9A8175"/>
<stop offset="0.45" stop-color="#836556"/>
<stop offset="0.57" stop-color="#714E3D"/>
<stop offset="0.7" stop-color="#643E2C"/>
<stop offset="0.84" stop-color="#5C3521"/>
<stop offset="1" stop-color="#5A321E"/>
</linearGradient>
<linearGradient id="paint15_linear_2_3914" x1="17.2258" y1="9.46368" x2="20.802" y2="9.46368" gradientUnits="userSpaceOnUse">
<stop stop-color="white" stop-opacity="0"/>
<stop offset="0.16" stop-color="#DDD5D0" stop-opacity="0.21"/>
<stop offset="0.52" stop-color="#967C70" stop-opacity="0.64"/>
<stop offset="0.82" stop-color="#6A4634" stop-opacity="0.9"/>
<stop offset="1" stop-color="#5A321E"/>
</linearGradient>
<linearGradient id="paint16_linear_2_3914" x1="18.4324" y1="9.8038" x2="20.3304" y2="9.8038" gradientUnits="userSpaceOnUse">
<stop stop-color="white"/>
<stop offset="1" stop-color="#25130E"/>
</linearGradient>
<clipPath id="clip0_2_3914">
<rect width="204.3" height="36" fill="white"/>
</clipPath>
</defs>
</svg>
