<svg width="64" height="64" viewBox="0 0 64 64" fill="none" xmlns="http://www.w3.org/2000/svg">
<path d="M12 50.4C12 45.0981 16.2981 40.8 21.6 40.8H31.2V50.4C31.2 55.7018 26.9019 60 21.6 60C16.2981 60 12 55.7018 12 50.4Z" fill="#24CB71"/>
<path d="M31.2 2.39996V21.6H40.8C46.1019 21.6 50.4 17.3019 50.4 12C50.4 6.69808 46.1019 2.39996 40.8 2.39996H31.2Z" fill="#FF7237"/>
<path d="M40.7201 40.8C46.0221 40.8 50.3201 36.5019 50.3201 31.2C50.3201 25.8981 46.0221 21.6 40.7201 21.6C35.4182 21.6 31.1201 25.8981 31.1201 31.2C31.1201 36.5019 35.4182 40.8 40.7201 40.8Z" fill="#00B6FF"/>
<path d="M12 12C12 17.3019 16.2981 21.6 21.6 21.6H31.2V2.39996H21.6C16.2981 2.39996 12 6.69808 12 12Z" fill="#FF3737"/>
<path d="M12 31.2C12 36.5019 16.2981 40.8 21.6 40.8H31.2V21.6H21.6C16.2981 21.6 12 25.8981 12 31.2Z" fill="#874FFF"/>
</svg>
