<svg width="32" height="32" viewBox="0 0 32 32" fill="none" xmlns="http://www.w3.org/2000/svg">
<g clip-path="url(#clip0_2_4470)">
<g clip-path="url(#clip1_2_4470)">
<mask id="mask0_2_4470" style="mask-type:luminance" maskUnits="userSpaceOnUse" x="-6" y="0" width="44" height="32">
<path d="M37.3333 0H-5.33333V32H37.3333V0Z" fill="white"/>
</mask>
<g mask="url(#mask0_2_4470)">
<path d="M-5.33333 0H37.3333V32H-5.33333V0Z" fill="#012169"/>
<path d="M-0.333328 0L15.9333 12.0667L32.1333 0H37.3333V4.13333L21.3333 16.0667L37.3333 27.9333V32H32L16 20.0667L0.0666718 32H-5.33333V28L10.6 16.1333L-5.33333 4.26667V0H-0.333328Z" fill="white"/>
<path d="M22.9333 18.7333L37.3333 29.3333V32L19.2667 18.7333H22.9333ZM10.6667 20.0667L11.0667 22.4L-1.73333 32H-5.33333L10.6667 20.0667ZM37.3333 0V0.2L20.7333 12.7333L20.8667 9.8L34 0H37.3333ZM-5.33333 0L10.6 11.7333H6.60001L-5.33333 2.8V0Z" fill="#C8102E"/>
<path d="M10.7333 0V32H21.4V0H10.7333ZM-5.33333 10.6667V21.3333H37.3333V10.6667H-5.33333Z" fill="white"/>
<path d="M-5.33333 12.8667V19.2667H37.3333V12.8667H-5.33333ZM12.8667 0V32H19.2667V0H12.8667Z" fill="#C8102E"/>
</g>
</g>
</g>
<rect x="0.266667" y="0.266667" width="31.4667" height="31.4667" rx="15.7333" stroke="#32383F" stroke-opacity="0.35" stroke-width="0.533333"/>
<defs>
<clipPath id="clip0_2_4470">
<rect width="32" height="32" rx="16" fill="white"/>
</clipPath>
<clipPath id="clip1_2_4470">
<rect width="42.6667" height="32" fill="white" transform="translate(-5.33333)"/>
</clipPath>
</defs>
</svg>
