<svg width="64" height="64" viewBox="0 0 64 64" fill="none" xmlns="http://www.w3.org/2000/svg">
<path d="M50.0833 4H13.9167C8.43984 4 4 8.55369 4 14.1709V49.8291C4 55.4463 8.43984 60 13.9167 60H50.0833C55.5602 60 60 55.4463 60 49.8291V14.1709C60 8.55369 55.5602 4 50.0833 4Z" fill="#00005B"/>
<path d="M11.896 18.574C11.8993 18.5393 11.9094 18.5057 11.9256 18.475C11.9419 18.4444 11.964 18.4175 11.9907 18.3959C12.0174 18.3743 12.048 18.3585 12.0808 18.3494C12.1136 18.3402 12.1479 18.338 12.1816 18.3428H18.7482C18.8345 18.3309 18.922 18.3517 18.9943 18.4014C19.0666 18.4511 19.1187 18.5262 19.1408 18.6126C19.3069 19.2808 19.5091 20.0835 19.7475 21.0207C19.985 21.9586 20.2408 22.9925 20.5147 24.1223C20.788 25.253 21.0676 26.4089 21.3535 27.59C21.639 28.7718 21.9186 29.9213 22.1922 31.0384C22.4654 32.1558 22.6973 33.1833 22.888 34.1209C23.0782 35.0588 23.2329 35.8358 23.352 36.4519H23.3878C23.4825 35.9125 23.649 35.1932 23.8874 34.2942C24.1248 33.3954 24.3984 32.3872 24.7081 31.2696C25.0171 30.1523 25.3324 29.0028 25.6539 27.8212C25.9751 26.64 26.2904 25.4713 26.5996 24.315C26.9085 23.1591 27.2 22.0866 27.474 21.0977C27.7473 20.1092 27.9673 19.2808 28.1342 18.6126C28.1461 18.535 28.1854 18.4646 28.2447 18.4148C28.3039 18.3651 28.3789 18.3395 28.4555 18.3428H34.8436C34.8822 18.3375 34.9215 18.3403 34.959 18.3512C34.9964 18.3621 35.0313 18.3807 35.0615 18.406C35.0916 18.4313 35.1163 18.4627 35.1341 18.4983C35.1519 18.5338 35.1624 18.5727 35.1649 18.6126L36.0213 43.2332C36.0346 43.2761 36.0366 43.3218 36.0273 43.3657C36.0179 43.4097 35.9974 43.4503 35.9679 43.4836C35.938 43.5155 35.9019 43.5406 35.8619 43.5572C35.8219 43.5738 35.7789 43.5816 35.7358 43.5799H31.0964C31.0322 43.5823 30.9691 43.5619 30.9179 43.5221C30.8911 43.4947 30.8708 43.4613 30.8584 43.4246C30.8461 43.3879 30.842 43.3488 30.8466 43.3102C30.8466 42.0002 30.8406 40.6259 30.8287 39.1875C30.8164 37.7493 30.7985 36.3044 30.7752 34.8529C30.7512 33.402 30.7512 32.0085 30.7752 30.6724C30.7986 29.3371 30.8105 28.1041 30.8109 26.9735C30.8109 25.8435 30.8168 24.861 30.8287 24.026C30.8404 23.1916 30.8464 22.5687 30.8466 22.1573H30.8109C30.6681 22.7997 30.4778 23.6409 30.2398 24.681C30.0017 25.7213 29.7222 26.89 29.4012 28.1872C29.08 29.4846 28.735 30.8267 28.3663 32.2136C27.9971 33.6007 27.6402 34.9749 27.2956 36.3363C26.9504 37.6981 26.6173 38.9696 26.2963 40.1508C25.9751 41.3326 25.7075 42.3729 25.4933 43.2717C25.4718 43.3612 25.4213 43.4406 25.3499 43.4967C25.2785 43.5527 25.1906 43.5821 25.1007 43.5799H21.0679C20.9718 43.5937 20.8741 43.5695 20.7946 43.5123C20.7151 43.4551 20.6598 43.3691 20.6396 43.2717C20.4255 42.3728 20.1817 41.3325 19.9081 40.1508C19.6342 38.9696 19.3547 37.7367 19.0694 36.4519C18.7839 35.1678 18.4806 33.8513 18.1593 32.5026C17.8382 31.154 17.5348 29.8504 17.2493 28.5918C16.9638 27.3335 16.7081 26.152 16.482 25.0471C16.2556 23.9429 16.0474 22.9668 15.8575 22.1188H15.786V25.1626C15.786 26.3444 15.7682 27.648 15.7326 29.0734C15.6968 30.4991 15.6612 31.9889 15.6255 33.5429C15.5898 35.0974 15.5482 36.7028 15.5006 38.3592C15.4527 40.0159 15.3932 41.6534 15.3221 43.2717C15.3221 43.4776 15.2268 43.5799 15.0366 43.5799H10.8968C10.8157 43.5837 10.7353 43.5636 10.6649 43.5222C10.6051 43.4836 10.5873 43.3873 10.6113 43.2332L11.896 18.574Z" fill="#9999FF"/>
<path d="M49.8906 35.1711H42.49C42.5809 35.8908 42.8246 36.5813 43.2038 37.194C43.6239 37.8363 44.2181 38.3385 44.913 38.6388C45.6767 38.9988 46.6723 39.1787 47.8997 39.1783C48.7119 39.1818 49.5228 39.1109 50.3227 38.9664C51.0778 38.8279 51.8151 38.6017 52.5203 38.292C52.6453 38.1897 52.7082 38.2535 52.7082 38.4847V42.1451C52.7144 42.2448 52.6949 42.3444 52.6518 42.434C52.6088 42.5041 52.551 42.5633 52.4827 42.6074C51.7048 42.9848 50.8848 43.263 50.0409 43.4358C48.9512 43.6458 47.8437 43.7426 46.735 43.7248C44.9564 43.7248 43.4663 43.4423 42.2646 42.8772C41.1285 42.3639 40.1252 41.5854 39.3345 40.6039C38.5959 39.679 38.0464 38.611 37.719 37.4637C37.3948 36.3312 37.2304 35.157 37.2307 33.9767C37.2272 32.688 37.4238 31.4069 37.813 30.1815C38.1878 28.9862 38.7806 27.8749 39.5598 26.9065C40.3284 25.9494 41.2895 25.174 42.3774 24.6332C43.6008 24.0544 44.9373 23.771 46.2842 23.8048C47.5304 23.7725 48.7682 24.0225 49.9094 24.5369C50.8738 24.9849 51.718 25.6657 52.37 26.5212C52.9855 27.3357 53.456 28.2553 53.76 29.2375C54.056 30.1841 54.208 31.1718 54.2108 32.1658C54.2108 32.7311 54.192 33.2448 54.1544 33.707C54.1169 34.1693 54.0856 34.5033 54.0605 34.7088C54.0508 34.7937 54.011 34.8721 53.9486 34.9289C53.8863 34.9857 53.8058 35.0171 53.7224 35.0171C53.5721 35.0171 53.3154 35.0363 52.9523 35.0748C52.589 35.1133 52.1382 35.139 51.5999 35.1519C51.0611 35.1651 50.4913 35.1715 49.8906 35.1711ZM42.49 31.4337H47.4112C48.0123 31.4337 48.4569 31.4273 48.7448 31.4145C48.9279 31.4145 49.1105 31.3952 49.2896 31.3567V31.1255C49.2821 30.8241 49.2314 30.5256 49.1394 30.2393C48.9367 29.582 48.5292 29.0111 47.9794 28.6143C47.4297 28.2175 46.7682 28.0169 46.0965 28.0431C45.4643 28.0039 44.8346 28.1543 44.2843 28.4758C43.7339 28.7974 43.2867 29.2762 42.9972 29.854C42.741 30.3468 42.5694 30.8812 42.49 31.4337Z" fill="#9999FF"/>
</svg>
