<svg width="64" height="64" viewBox="0 0 64 64" fill="none" xmlns="http://www.w3.org/2000/svg">
<path d="M4 24.2666C4 17.1726 4 13.6256 5.38058 10.916C6.59498 8.53264 8.53273 6.59489 10.9161 5.38049C13.6257 3.99991 17.1727 3.99991 24.2667 3.99991H39.7333C46.8273 3.99991 50.3743 3.99991 53.0839 5.38049C55.4673 6.59489 57.405 8.53264 58.6194 10.916C60 13.6256 60 17.1726 60 24.2666V39.7332C60 46.8272 60 50.3742 58.6194 53.0838C57.405 55.4672 55.4673 57.4049 53.0839 58.6193C50.3743 59.9999 46.8273 59.9999 39.7333 59.9999H24.2667C17.1727 59.9999 13.6257 59.9999 10.9161 58.6193C8.53273 57.4049 6.59498 55.4672 5.38058 53.0838C4 50.3742 4 46.8272 4 39.7332V24.2666Z" fill="#00005B"/>
<path d="M16 43.5914V18.4159C16 18.2447 16.0702 18.1468 16.234 18.1468C18.6525 18.1468 21.0698 18 23.489 18C27.4143 18 31.6646 19.3681 33.1544 23.5538C33.5054 24.5813 33.6927 25.6334 33.6927 26.7343C33.6927 28.8384 33.2246 30.5755 32.2885 31.9456C29.6735 35.7728 25.1412 35.7133 21.0784 35.7133V43.5669C21.1102 43.7994 20.9158 43.9094 20.7274 43.9094H16.2808C16.0936 43.9094 16 43.8116 16 43.5914ZM21.1018 22.8687V31.0893C22.7127 31.2096 24.3984 31.2226 25.9463 30.6978C27.655 30.1954 28.5908 28.6877 28.5908 26.8811C28.6383 25.3417 27.8153 23.8647 26.4143 23.3091C24.8852 22.661 22.7525 22.6222 21.1018 22.8687Z" fill="#9999FF"/>
<path d="M36.865 24.4239H40.9721C41.1986 24.4259 41.4019 24.5894 41.4619 24.8178C41.7629 25.5164 41.7999 26.3589 41.801 27.1132C42.5053 26.2559 43.3547 25.5415 44.3066 25.0059C45.3276 24.4019 46.485 24.0958 47.6579 24.1196C47.8525 24.0905 48.0249 24.2706 47.997 24.4741V29.2403C47.997 29.4243 47.871 29.516 47.6203 29.516C45.8819 29.3906 43.1754 29.82 41.9123 31.2492V43.6421C41.9123 43.8784 41.8118 43.9966 41.6108 43.9966H37.2042C36.9877 44.0291 36.7968 43.8254 36.8273 43.6026V30.1463C36.8273 28.3431 36.8647 26.4858 36.6013 24.6996C36.5607 24.5353 36.7113 24.3824 36.865 24.4239Z" fill="#9999FF"/>
</svg>
