<svg width="72" height="80" viewBox="0 0 72 80" fill="none" xmlns="http://www.w3.org/2000/svg">
<g clip-path="url(#clip0_2_4251)">
<path fill-rule="evenodd" clip-rule="evenodd" d="M4.86436 63.7098C5.42416 63.7098 5.88853 63.5156 6.25775 63.1268C6.62669 62.7383 6.81102 62.2574 6.81102 61.6841C6.81102 61.0982 6.62669 60.6136 6.25775 60.2317C5.88853 59.8492 5.42416 59.658 4.86436 59.658H2.51667V63.7098H4.86436ZM4.86436 57.1926C6.14954 57.1926 7.23109 57.626 8.10899 58.4923C8.98717 59.3591 9.42598 60.4225 9.42598 61.6841C9.42598 62.9454 8.98717 64.0093 8.10899 64.8755C7.23109 65.7421 6.14954 66.1749 4.86436 66.1749H2.51667V70.31H-0.117035V57.1926H4.86436Z" fill="#252830"/>
<path fill-rule="evenodd" clip-rule="evenodd" d="M13.5293 62.3067C13.7585 61.695 14.1368 61.2365 14.6651 60.9305C15.1928 60.6248 15.7815 60.4718 16.4302 60.4718V63.3149C15.6793 63.2259 15.0084 63.3789 14.4168 63.7736C13.8252 64.1686 13.5293 64.8247 13.5293 65.7422V70.3099H11.0671V60.4721H13.5293V62.3067Z" fill="#252830"/>
<path fill-rule="evenodd" clip-rule="evenodd" d="M20.3618 67.2356C20.8384 67.72 21.4357 67.9623 22.154 67.9623C22.872 67.9623 23.4727 67.72 23.9555 67.2356C24.4383 66.751 24.68 66.1362 24.68 65.391C24.68 64.6457 24.4383 64.0308 23.9555 63.5462C23.4727 63.0619 22.872 62.8198 22.154 62.8198C21.4357 62.8198 20.8384 63.0619 20.3618 63.5462C19.885 64.0308 19.6467 64.6457 19.6467 65.391C19.6467 66.1362 19.885 66.751 20.3618 67.2356ZM25.6457 68.8845C24.692 69.8347 23.5283 70.3099 22.154 70.3099C20.7796 70.3099 19.6188 69.8347 18.6716 68.8845C17.7244 67.9341 17.251 66.7698 17.251 65.391C17.251 64.0123 17.7244 62.8477 18.6716 61.8973C19.6188 60.9474 20.7796 60.4722 22.154 60.4722C23.5283 60.4722 24.692 60.9474 25.6457 61.8973C26.5989 62.8477 27.0757 64.0123 27.0757 65.391C27.0757 66.7698 26.5989 67.9341 25.6457 68.8845Z" fill="#252830"/>
<path fill-rule="evenodd" clip-rule="evenodd" d="M34.1972 62.842H32.0406V67.0209C32.0406 67.3522 32.123 67.5942 32.2886 67.7472C32.4539 67.8999 32.6956 67.9861 33.0139 68.0051C33.3318 68.0245 33.7263 68.0214 34.1972 67.9955V70.2314C32.505 70.4228 31.3118 70.2632 30.6185 69.7539C29.925 69.2445 29.5785 68.3333 29.5785 67.0209V62.842H27.9181V60.4721H29.5785V58.8323L32.0406 58.0784V60.4721H34.1972V62.842Z" fill="#252830"/>
<path fill-rule="evenodd" clip-rule="evenodd" d="M38.1287 67.2356C38.6053 67.72 39.2028 67.9623 39.9208 67.9623C40.6388 67.9623 41.2395 67.72 41.7224 67.2356C42.2055 66.751 42.4469 66.1362 42.4469 65.391C42.4469 64.6457 42.2055 64.0308 41.7224 63.5462C41.2395 63.0619 40.6388 62.8198 39.9208 62.8198C39.2028 62.8198 38.6053 63.0619 38.1287 63.5462C37.6518 64.0308 37.4135 64.6457 37.4135 65.391C37.4135 66.1362 37.6518 66.751 38.1287 67.2356ZM43.4126 68.8845C42.4591 69.8347 41.2952 70.3099 39.9208 70.3099C38.5465 70.3099 37.3857 69.8347 36.4385 68.8845C35.4916 67.9341 35.0178 66.7698 35.0178 65.391C35.0178 64.0123 35.4916 62.8477 36.4385 61.8973C37.3857 60.9474 38.5465 60.4722 39.9208 60.4722C41.2952 60.4722 42.4591 60.9474 43.4126 61.8973C44.3657 62.8477 44.8426 64.0123 44.8426 65.391C44.8426 66.7698 44.3657 67.9341 43.4126 68.8845Z" fill="#252830"/>
<path fill-rule="evenodd" clip-rule="evenodd" d="M51.4649 63.7098C52.025 63.7098 52.4891 63.5156 52.8583 63.1268C53.2275 62.7383 53.4119 62.2574 53.4119 61.6841C53.4119 61.0982 53.2275 60.6136 52.8583 60.2317C52.4891 59.8492 52.025 59.658 51.4649 59.658H49.1175V63.7098H51.4649ZM51.4649 57.1926C52.7501 57.1926 53.8316 57.626 54.7095 58.4923C55.5877 59.3591 56.0268 60.4225 56.0268 61.6841C56.0268 62.9454 55.5877 64.0093 54.7095 64.8755C53.8316 65.7421 52.7501 66.1749 51.4649 66.1749H49.1175V70.31H46.4835V57.1926H51.4649Z" fill="#252830"/>
<mask id="mask0_2_4251" style="mask-type:luminance" maskUnits="userSpaceOnUse" x="-10" y="5" width="92" height="76">
<path d="M-10 80.0801H81.4539V5H-10V80.0801Z" fill="white"/>
</mask>
<g mask="url(#mask0_2_4251)">
<path fill-rule="evenodd" clip-rule="evenodd" d="M57.6688 70.31H60.1309V62.1118H57.6688V70.31ZM58.877 60.472C58.4373 60.472 58.0565 60.3107 57.7341 59.9874C57.4114 59.6646 57.2501 59.2829 57.2501 58.8427C57.2501 58.4027 57.4114 58.0179 57.7341 57.6878C58.0565 57.3579 58.4373 57.1926 58.877 57.1926C59.3303 57.1926 59.7182 57.3579 60.0409 57.6878C60.3635 58.0179 60.5249 58.4027 60.5249 58.8427C60.5249 59.2829 60.3635 59.6646 60.0409 59.9874C59.7182 60.3107 59.3303 60.472 58.877 60.472Z" fill="#252830"/>
</g>
<mask id="mask1_2_4251" style="mask-type:luminance" maskUnits="userSpaceOnUse" x="-10" y="5" width="92" height="76">
<path d="M-10 80.0801H81.4539V5H-10V80.0801Z" fill="white"/>
</mask>
<g mask="url(#mask1_2_4251)">
<path fill-rule="evenodd" clip-rule="evenodd" d="M64.3015 64.5152H69.1475C69.008 63.8816 68.72 63.4097 68.2829 63.0992C67.8458 62.7889 67.3482 62.6334 66.791 62.6334C66.132 62.6334 65.5873 62.798 65.1567 63.1271C64.7262 63.4564 64.4407 63.9191 64.3015 64.5152ZM71.2694 68.1011C71.1876 68.2257 71.1239 68.3161 71.1239 68.3161C70.1861 69.6454 68.8052 70.3097 66.9813 70.3097C65.4101 70.3097 64.1496 69.8439 63.1996 68.9122C62.2492 67.9808 61.7744 66.8068 61.7744 65.3908C61.7744 63.9874 62.2427 62.8168 63.1805 61.8786C64.1178 60.9412 65.3212 60.472 66.791 60.472C68.1844 60.472 69.3343 60.944 70.2401 61.888C71.1458 62.8321 71.5988 63.9999 71.5988 65.3908C71.5988 65.7014 71.567 66.0307 71.504 66.3783H64.3396C64.6691 67.546 65.562 68.1298 67.019 68.1298C67.8498 68.1298 68.5016 67.8861 68.9745 67.3981C69.6593 67.6068 71.2694 68.1011 71.2694 68.1011Z" fill="#252830"/>
</g>
<mask id="mask2_2_4251" style="mask-type:luminance" maskUnits="userSpaceOnUse" x="19" y="14" width="33" height="34">
<path d="M20.7366 14.9984C20.3884 14.9984 20.0725 15.1463 19.8564 15.3855C19.6621 15.5902 19.5406 15.8655 19.5326 16.1653V16.2463C19.5366 16.3882 19.565 16.5222 19.6156 16.6456C19.6173 16.6556 19.6218 16.6661 19.6255 16.6761C19.6641 16.7691 19.7147 16.8561 19.7755 16.9351C19.7976 16.9656 19.8218 16.994 19.8482 17.0205C19.8524 17.0267 19.8584 17.0324 19.8644 17.0387L23.7023 21.6009L25.0883 23.2481L29.2358 28.1772L30.6198 29.8222L34.3345 34.2368L35.7183 35.8818V47.4134C36.5337 47.4134 37.2744 47.0889 37.8186 46.5642C37.8206 46.5642 37.8206 46.5642 37.8206 46.5625L38.2293 46.0762L48.1898 34.2368L51.6008 30.1828C51.617 30.1646 51.6332 30.1464 51.6474 30.1262C51.7201 30.0349 51.7789 29.9337 51.8215 29.8222C51.8761 29.6862 51.9045 29.5403 51.9045 29.3845V16.206C51.9045 15.888 51.7812 15.5959 51.5787 15.3835C51.36 15.1463 51.0464 14.9984 50.6985 14.9984H20.7366Z" fill="white"/>
</mask>
<g mask="url(#mask2_2_4251)">
<path fill-rule="evenodd" clip-rule="evenodd" d="M20.7366 14.9984C20.3884 14.9984 20.0725 15.1463 19.8564 15.3855C19.6621 15.5902 19.5406 15.8655 19.5326 16.1653V16.2463C19.5366 16.3882 19.565 16.5222 19.6156 16.6456C19.6173 16.6556 19.6218 16.6661 19.6255 16.6761C19.6641 16.7691 19.7147 16.8561 19.7755 16.9351C19.7976 16.9656 19.8218 16.994 19.8482 17.0205C19.8524 17.0267 19.8584 17.0324 19.8644 17.0387L23.7023 21.6009L25.0883 23.2481L29.2358 28.1772L30.6198 29.8222L34.3345 34.2368L35.7183 35.8818V47.4134C36.5337 47.4134 37.2744 47.0889 37.8186 46.5642C37.8206 46.5642 37.8206 46.5642 37.8206 46.5625L38.2293 46.0762L48.1898 34.2368L51.6008 30.1828C51.617 30.1646 51.6332 30.1464 51.6474 30.1262C51.7201 30.0349 51.7789 29.9337 51.8215 29.8222C51.8761 29.6862 51.9045 29.5403 51.9045 29.3845V16.206C51.9045 15.888 51.7812 15.5959 51.5787 15.3835C51.36 15.1463 51.0464 14.9984 50.6985 14.9984H20.7366Z" fill="url(#paint0_linear_2_4251)"/>
</g>
<path fill-rule="evenodd" clip-rule="evenodd" d="M35.7185 42.4822V47.4133C34.903 47.4133 34.1626 47.0891 33.6184 46.5644C33.6164 46.5644 33.6164 46.5644 33.6164 46.5624L33.2077 46.0761L23.2472 34.2368L19.8563 30.2072C19.8484 30.2009 19.8421 30.193 19.8361 30.185L19.7836 30.1222C19.7793 30.1179 19.7754 30.1139 19.7714 30.1079C19.7066 30.0209 19.6518 29.9256 19.6135 29.8221C19.5649 29.6987 19.5365 29.565 19.5325 29.4251V29.3441C19.5408 29.0403 19.662 28.7687 19.8563 28.5623C20.0747 28.3251 20.3883 28.1772 20.7365 28.1772H23.6781L25.0621 29.8221L28.7768 34.2368L34.8667 41.4735L35.7165 42.4842L35.7185 42.4822Z" fill="#FCD1CA"/>
<path fill-rule="evenodd" clip-rule="evenodd" d="M35.7185 35.8818V42.4823L35.7165 42.4843L34.8667 41.4735L28.7768 34.2368L25.0621 29.8222L23.6781 28.1772L19.8339 23.611C19.818 23.5925 19.8018 23.5723 19.7853 23.5521C19.7146 23.4608 19.6561 23.3596 19.6135 23.2481C19.5649 23.1247 19.5365 22.9907 19.5325 22.8491V22.7681C19.5408 22.4663 19.662 22.1947 19.8563 21.988C20.0727 21.7491 20.3883 21.6012 20.7365 21.6012H23.7025L25.0885 23.2481L29.236 28.1772L30.6198 29.8222L34.3344 34.2368L35.7185 35.8818Z" fill="#FF9D8D"/>
</g>
<defs>
<linearGradient id="paint0_linear_2_4251" x1="2839.12" y1="-278.98" x2="379.757" y2="2177.09" gradientUnits="userSpaceOnUse">
<stop stop-color="#FF6660"/>
<stop offset="1" stop-color="#FB4444"/>
</linearGradient>
<clipPath id="clip0_2_4251">
<rect width="71.6667" height="80" fill="white"/>
</clipPath>
</defs>
</svg>
