<svg width="32" height="32" viewBox="0 0 32 32" fill="none" xmlns="http://www.w3.org/2000/svg">
<g clip-path="url(#clip0_2_4380)">
<path d="M0 0H35.7333V35.7333H0V0Z" fill="#FF0000"/>
<path d="M0 -4.80005H18V15.7333H0V-4.80005Z" fill="#000095"/>
<path d="M7.7 10.0783L7.575 10.5583L8.045 10.6883L7.955 10.3333L7.7 10.0783ZM10.045 10.3333L9.955 10.6883L10.425 10.5583L10.3 10.0783L10.045 10.3333ZM7.955 9.1333L7.7 9.3883L7.795 9.7333L7.955 9.1333Z" fill="white"/>
<path d="M7.795 9.73328L7.7 10.0783L7.955 10.3333L7.795 9.73328Z" fill="white"/>
<path d="M7.70123 9.38806L7.35623 9.73306L7.70123 10.0781L7.79623 9.73306L7.70123 9.38806ZM8.40123 10.7781L8.65623 11.0331L9.00123 10.9381L8.40123 10.7781ZM9.34623 11.0331L9.82623 11.1581L9.95623 10.6881L9.60123 10.7781L9.34623 11.0331Z" fill="white"/>
<path d="M9.59876 10.7784L9.95376 10.6884L10.0438 10.3334L9.59876 10.7784ZM8.04376 10.6884L8.17376 11.1584L8.65376 11.0334L8.39876 10.7784L8.04376 10.6884ZM8.99876 10.9384L9.34376 11.0334L9.59876 10.7784L8.99876 10.9384Z" fill="white"/>
<path d="M8.655 11.0337L9 11.3787L9.345 11.0337L9 10.9387L8.655 11.0337ZM8.045 8.77869L7.575 8.90869L7.7 9.38869L7.955 9.13369L8.045 8.77869ZM7.955 10.3337L8.045 10.6887L8.4 10.7787L7.955 10.3337ZM10.205 9.73369L10.3 9.38869L10.045 9.13369L10.205 9.73369Z" fill="white"/>
<path d="M8.40124 8.68799L8.04624 8.77799L7.95624 9.13299L8.40124 8.68799ZM10.0462 9.13299L9.95624 8.77799L9.60124 8.68799L10.0462 9.13299ZM10.3012 10.078L10.6462 9.73299L10.3012 9.38799L10.2062 9.73299L10.3012 10.078Z" fill="white"/>
<path d="M10.0438 9.13369L9.59876 8.68869L8.99876 8.52869L8.39876 8.68869L7.95376 9.13369L7.79376 9.73369L7.95376 10.3337L8.39876 10.7787L8.99876 10.9387L9.59876 10.7787L10.0438 10.3337L10.2038 9.73369L10.0438 9.13369Z" fill="white"/>
<path d="M10.0438 10.3333L10.2988 10.0783L10.2038 9.73335L10.0438 10.3333ZM10.2988 9.38835L10.4238 8.90835L9.95376 8.77835L10.0438 9.13335L10.2988 9.38835ZM9.95376 8.77835L9.82376 8.30835L9.34376 8.43335L9.59876 8.68835L9.95376 8.77835ZM8.65376 8.43335L8.17376 8.30835L8.04376 8.77835L8.39876 8.68835L8.65376 8.43335ZM8.99876 8.52835L8.65376 8.43335L8.39876 8.68835L8.99876 8.52835Z" fill="white"/>
<path d="M9.34623 8.43301L9.00123 8.08801L8.65623 8.43301L9.00123 8.52801L9.34623 8.43301Z" fill="white"/>
<path d="M9.60123 8.68835L9.34623 8.43335L9.00123 8.52835L9.60123 8.68835ZM8.65623 11.0333L8.17623 11.1583L8.40123 11.9883L9.00123 11.3783L8.65623 11.0333ZM8.40123 11.9883L9.00123 14.2333L9.60123 11.9883L9.00123 11.3783L8.40123 11.9883ZM8.04623 10.6883L7.57623 10.5583L7.35623 11.3783L8.17623 11.1583L8.04623 10.6883Z" fill="white"/>
<path d="M7.35501 11.3784L6.75501 13.6334L8.40001 11.9884L8.17501 11.1584L7.35501 11.3784ZM6.75501 10.3334L5.10001 11.9884L7.35501 11.3784L7.57501 10.5584L6.75501 10.3334Z" fill="white"/>
<path d="M7.70124 10.0783L7.35624 9.73333L6.75624 10.3333L7.57624 10.5583L7.70124 10.0783ZM7.70124 9.38833L7.57624 8.90833L6.75624 9.13333L7.35624 9.73333L7.70124 9.38833Z" fill="white"/>
<path d="M6.755 9.1333L4.5 9.7333L6.755 10.3333L7.355 9.7333L6.755 9.1333ZM11.255 10.3333L10.425 10.5583L10.645 11.3783L12.9 11.9883L11.255 10.3333Z" fill="white"/>
<path d="M9.955 10.6883L9.825 11.1583L10.645 11.3783L10.425 10.5583L9.955 10.6883ZM9.345 11.0333L9 11.3783L9.6 11.9883L9.825 11.1583L9.345 11.0333ZM10.3 10.0783L10.425 10.5583L11.255 10.3333L10.645 9.73328L10.3 10.0783Z" fill="white"/>
<path d="M9.60001 11.988L11.255 13.633L10.645 11.378L9.82501 11.158L9.60001 11.988ZM9.95501 8.77801L10.425 8.90801L10.645 8.08801L9.82501 8.30801L9.95501 8.77801Z" fill="white"/>
<path d="M11.255 9.13337L12.9 7.48837L10.645 8.08837L10.425 8.90837L11.255 9.13337ZM10.645 8.08837L11.255 5.83337L9.60001 7.48837L9.82501 8.30837L10.645 8.08837ZM11.255 10.3334L13.5 9.73337L11.255 9.13337L10.645 9.73337L11.255 10.3334Z" fill="white"/>
<path d="M10.3012 9.38837L10.6462 9.73337L11.2562 9.13337L10.4262 8.90837L10.3012 9.38837ZM8.40124 7.48837L6.75624 5.83337L7.35624 8.08837L8.17624 8.30837L8.40124 7.48837Z" fill="white"/>
<path d="M8.04623 8.77801L8.17623 8.30801L7.35623 8.08801L7.57623 8.90801L8.04623 8.77801Z" fill="white"/>
<path d="M7.35501 8.08803L5.10001 7.48804L6.75501 9.13303L7.57501 8.90803L7.35501 8.08803ZM9.34501 8.43303L9.82501 8.30803L9.60001 7.48804L9.00001 8.08803L9.34501 8.43303Z" fill="white"/>
<path d="M9.59999 7.48828L8.99999 5.23328L8.39999 7.48828L8.99999 8.08828L9.59999 7.48828Z" fill="white"/>
<path d="M8.655 8.43303L9 8.08803L8.4 7.48804L8.175 8.30803L8.655 8.43303Z" fill="white"/>
<path d="M8.99877 12.2886C10.4099 12.2886 11.5538 11.1447 11.5538 9.7336C11.5538 8.32252 10.4099 7.17859 8.99877 7.17859C7.58769 7.17859 6.44377 8.32252 6.44377 9.7336C6.44377 11.1447 7.58769 12.2886 8.99877 12.2886Z" fill="#000095"/>
<path d="M8.99876 11.9886C10.2442 11.9886 11.2538 10.979 11.2538 9.73365C11.2538 8.48825 10.2442 7.47864 8.99876 7.47864C7.75336 7.47864 6.74376 8.48825 6.74376 9.73365C6.74376 10.979 7.75336 11.9886 8.99876 11.9886Z" fill="white"/>
</g>
<rect x="0.266667" y="0.266667" width="31.4667" height="31.4667" rx="15.7333" stroke="#32383F" stroke-opacity="0.35" stroke-width="0.533333"/>
<defs>
<clipPath id="clip0_2_4380">
<rect width="32" height="32" rx="16" fill="white"/>
</clipPath>
</defs>
</svg>
